<?xml version="1.0" encoding="UTF-8"?>
<!--
  Feather quill icon
  Created by Grace (X: @Luci_Grace_C), 2026.
  (C) 2026 Grace. All rights reserved.
  Licensed for PERSONAL, NON-COMMERCIAL use only.
  Commercial use is NOT permitted without the author's written permission.
  License: CC BY-NC 4.0  https://creativecommons.org/licenses/by-nc/4.0/
-->
<svg xmlns="http://www.w3.org/2000/svg"
xmlns:dc="http://purl.org/dc/elements/1.1/"
xmlns:cc="http://creativecommons.org/ns#"
xmlns:rdf="http://www.w3.org/1999/02/22-rdf-syntax-ns#"
viewBox="0 0 1680 1523"
width="1680"
height="1523">
<title>Feather quill — by Grace</title>
<desc>Created by Grace (@Luci_Grace_C), 2026. Personal, non-commercial use only; commercial use is not permitted. Licensed under CC BY-NC 4.0.</desc>
<metadata>
<rdf:RDF>
<cc:Work rdf:about="">
<dc:title>Feather quill</dc:title>
<dc:creator><cc:Agent><dc:title>Grace (@Luci_Grace_C)</dc:title></cc:Agent></dc:creator>
<dc:date>2026</dc:date>
<dc:rights><cc:Agent><dc:title>(C) 2026 Grace. Personal, non-commercial use only.</dc:title></cc:Agent></dc:rights>
<cc:license rdf:resource="http://creativecommons.org/licenses/by-nc/4.0/"/>
</cc:Work>
<cc:License rdf:about="http://creativecommons.org/licenses/by-nc/4.0/">
<cc:permits rdf:resource="http://creativecommons.org/ns#Reproduction"/>
<cc:permits rdf:resource="http://creativecommons.org/ns#Distribution"/>
<cc:requires rdf:resource="http://creativecommons.org/ns#Attribution"/>
<cc:prohibits rdf:resource="http://creativecommons.org/ns#CommercialUse"/>
</cc:License>
</rdf:RDF>
</metadata>
<g fill="None" fill-opacity="0.0" stroke="#FEFEFE" stroke-opacity="1.00" stroke-width="0.3"><path d="
M 0.00 1523.00 
L 1680.00 1523.00
L 1680.00 0.00
L 0.00 0.00
L 0.00 1523.00
M 1135.00 318.00 
C 1182.13 318.00 1228.99 350.84 1230.00 401.00
C 1230.62 406.09 1230.48 412.00 1230.00 417.00
C 1230.00 430.18 1226.47 445.00 1223.07 457.07 C 1219.68 469.15 1215.06 480.18 1210.22 491.22 C 1205.39 502.27 1199.15 511.14 1193.08 521.08 C 1187.02 531.03 1179.60 538.44 1172.75 547.75 C 1165.89 557.05 1179.63 566.63 1181.93 578.07 C 1184.23 589.52 1190.21 606.33 1188.00 619.00 C 1185.79 631.67 1182.68 644.88 1176.70 655.70 C 1170.71 666.51 1164.81 673.61 1156.25 682.25 C 1147.68 690.89 1140.13 696.65 1130.25 703.25 C 1120.38 709.86 1110.27 714.07 1099.31 719.31 C 1088.34 724.54 1077.02 728.38 1064.98 731.98 C 1052.93 735.57 1040.78 739.20 1027.98 741.98 C 1015.17 744.75 1001.55 747.26 988.00 749.00 C 974.45 750.73 959.01 753.29 945.00 754.00
C 952.50 781.93 944.59 814.49 926.25 836.25 C 907.90 858.01 889.55 869.31 863.92 880.92 C 838.30 892.54 809.76 900.63 780.98 905.98 C 752.19 911.32 715.72 914.82 685.99 917.99 C 656.26 921.16 621.73 926.12 593.98 933.98 C 566.22 941.83 540.94 950.38 530.03 977.03 C 519.11 1003.67 505.53 1024.11 496.00 1051.00
C 527.24 1036.32 560.72 1027.03 596.00 1026.00
C 600.81 1025.53 606.20 1025.22 611.00 1026.00
C 651.87 1028.22 653.26 1092.76 612.00 1095.00
C 608.47 1095.57 604.17 1096.00 600.00 1096.00
C 573.85 1096.00 546.08 1105.49 523.32 1115.32 C 500.56 1125.15 484.93 1139.91 466.75 1155.75 C 448.57 1171.59 446.32 1203.14 419.00 1205.00
C 415.51 1205.63 412.43 1205.61 409.00 1205.00
C 379.73 1203.01 374.63 1169.97 383.98 1147.98 C 393.32 1125.98 398.72 1102.02 407.93 1079.93 C 417.14 1057.84 425.02 1036.48 434.32 1014.32 C 443.63 992.16 453.82 974.02 463.32 951.32 C 472.83 928.63 489.75 912.41 489.00 885.00 C 488.25 857.59 489.44 821.05 490.00 793.00
C 490.05 790.59 490.84 787.70 491.00 786.00
C 491.30 770.80 492.66 754.76 493.99 739.99 C 495.32 725.23 496.90 710.24 499.00 696.00 C 501.10 681.75 503.78 667.34 506.78 653.78 C 509.77 640.21 512.09 626.79 515.99 613.99 C 519.89 601.20 524.06 588.53 528.32 576.32 C 532.59 564.11 537.65 553.20 542.77 541.77 C 547.89 530.34 553.75 519.37 559.77 508.77 C 565.79 498.17 571.85 488.55 578.77 478.77 C 585.69 468.99 592.52 459.33 600.25 450.25 C 607.97 441.17 615.26 433.28 623.75 424.75 C 632.24 416.22 640.49 408.10 649.70 400.70 C 658.91 393.29 666.93 385.49 676.75 378.75 C 686.57 372.02 695.65 365.39 706.23 359.23 C 716.81 353.07 727.66 347.37 739.22 342.22 C 750.79 337.08 761.59 332.13 774.22 328.22 C 786.85 324.31 801.42 321.09 815.07 319.07 C 828.72 317.06 848.40 317.91 862.01 318.99 C 875.62 320.07 889.62 325.01 901.68 329.32 C 913.74 333.64 922.46 341.53 932.75 347.25 C 943.04 352.97 949.19 369.47 960.23 364.23 C 971.27 358.99 981.40 352.94 993.07 348.07 C 1004.75 343.21 1016.32 337.42 1029.02 334.02 C 1041.73 330.63 1053.62 325.34 1067.22 323.22 C 1080.82 321.10 1097.67 318.00 1112.00 318.00
C 1119.24 317.30 1127.83 317.31 1135.00 318.00
M 1124.00 1205.00 
C 1119.91 1205.40 1115.03 1205.39 1111.00 1205.00
C 1068.84 1205.00 1031.28 1178.89 1006.00 1146.00
C 976.96 1177.01 942.36 1204.84 899.00 1205.00
C 894.91 1205.40 890.02 1205.39 886.00 1205.00
C 876.29 1205.00 864.64 1203.04 855.93 1200.07 C 847.21 1197.10 838.55 1194.75 830.92 1190.08 C 823.30 1185.40 816.56 1181.83 809.92 1176.08 C 803.28 1170.33 798.17 1165.72 792.25 1158.75 C 786.33 1151.78 780.43 1144.12 774.75 1153.75 C 769.07 1163.39 764.04 1164.49 757.25 1171.25 C 750.47 1178.02 745.41 1181.80 737.75 1186.75 C 730.10 1191.71 722.87 1194.71 714.32 1198.32 C 705.77 1201.93 694.74 1204.81 685.00 1205.00
C 681.62 1205.41 678.38 1205.61 675.00 1205.00
C 649.10 1203.24 635.88 1167.57 652.75 1148.75 C 669.63 1129.94 698.79 1136.10 715.25 1116.25 C 731.71 1096.40 741.81 1080.14 750.92 1056.92 C 760.04 1033.71 800.83 1032.14 811.25 1053.75 C 821.68 1075.35 829.41 1095.92 846.25 1113.75 C 863.09 1131.59 892.96 1141.47 915.07 1131.07 C 937.18 1120.68 951.50 1104.20 962.77 1083.77 C 974.04 1063.34 982.29 1034.90 1011.07 1038.93 C 1039.85 1042.96 1040.94 1070.67 1053.92 1091.08 C 1066.90 1111.49 1081.28 1128.34 1106.01 1133.99 C 1130.74 1139.64 1154.58 1125.63 1171.25 1107.25 C 1187.92 1088.86 1192.52 1067.87 1207.25 1048.25 C 1221.98 1028.63 1262.53 1039.79 1265.78 1064.22 C 1269.02 1088.65 1253.39 1112.18 1240.75 1131.75 C 1228.10 1151.31 1213.19 1166.23 1194.25 1180.25 C 1175.31 1194.26 1148.25 1205.00 1124.00 1205.00 Z"/>
</g>
<g fill="None" fill-opacity="0.0" stroke="#A2A19F" stroke-opacity="1.00" stroke-width="0.3"><path d="
M 1112.00 318.00 
C 1119.67 318.00 1127.33 318.00 1135.00 318.00
C 1127.83 317.31 1119.24 317.30 1112.00 318.00 Z"/>
</g>
<g fill="None" fill-opacity="0.0" stroke="#3B3B39" stroke-opacity="1.00" stroke-width="0.3"><path d="
M 491.00 786.00 
C 490.95 788.41 490.16 791.30 490.00 793.00
C 489.44 821.05 488.25 857.59 489.00 885.00 C 489.75 912.41 472.83 928.63 463.32 951.32 C 453.82 974.02 443.63 992.16 434.32 1014.32 C 425.02 1036.48 417.14 1057.84 407.93 1079.93 C 398.72 1102.02 393.32 1125.98 383.98 1147.98 C 374.63 1169.97 379.73 1203.01 409.00 1205.00
C 412.23 1205.22 415.77 1205.22 419.00 1205.00
C 446.32 1203.14 448.57 1171.59 466.75 1155.75 C 484.93 1139.91 500.56 1125.15 523.32 1115.32 C 546.08 1105.49 573.85 1096.00 600.00 1096.00
C 603.34 1095.68 608.03 1095.22 612.00 1095.00
C 653.26 1092.76 651.87 1028.22 611.00 1026.00
C 606.03 1025.73 600.97 1026.00 596.00 1026.00
C 560.72 1027.03 527.24 1036.32 496.00 1051.00
C 505.53 1024.11 519.11 1003.67 530.03 977.03 C 540.94 950.38 566.22 941.83 593.98 933.98 C 621.73 926.12 656.26 921.16 685.99 917.99 C 715.72 914.82 752.19 911.32 780.98 905.98 C 809.76 900.63 838.30 892.54 863.92 880.92 C 889.55 869.31 907.90 858.01 926.25 836.25 C 944.59 814.49 952.50 781.93 945.00 754.00
C 959.01 753.29 974.45 750.73 988.00 749.00 C 1001.55 747.26 1015.17 744.75 1027.98 741.98 C 1040.78 739.20 1052.93 735.57 1064.98 731.98 C 1077.02 728.38 1088.34 724.54 1099.31 719.31 C 1110.27 714.07 1120.38 709.86 1130.25 703.25 C 1140.13 696.65 1147.68 690.89 1156.25 682.25 C 1164.81 673.61 1170.71 666.51 1176.70 655.70 C 1182.68 644.88 1185.79 631.67 1188.00 619.00 C 1190.21 606.33 1184.23 589.52 1181.93 578.07 C 1179.63 566.63 1165.89 557.05 1172.75 547.75 C 1179.60 538.44 1187.02 531.03 1193.08 521.08 C 1199.15 511.14 1205.39 502.27 1210.22 491.22 C 1215.06 480.18 1219.68 469.15 1223.07 457.07 C 1226.47 445.00 1230.00 430.18 1230.00 417.00
C 1230.00 411.67 1230.11 406.33 1230.00 401.00
C 1228.99 350.84 1182.13 318.00 1135.00 318.00
C 1127.33 318.00 1119.67 318.00 1112.00 318.00
C 1097.67 318.00 1080.82 321.10 1067.22 323.22 C 1053.62 325.34 1041.73 330.63 1029.02 334.02 C 1016.32 337.42 1004.75 343.21 993.07 348.07 C 981.40 352.94 971.27 358.99 960.23 364.23 C 949.19 369.47 943.04 352.97 932.75 347.25 C 922.46 341.53 913.74 333.64 901.68 329.32 C 889.62 325.01 875.62 320.07 862.01 318.99 C 848.40 317.91 828.72 317.06 815.07 319.07 C 801.42 321.09 786.85 324.31 774.22 328.22 C 761.59 332.13 750.79 337.08 739.22 342.22 C 727.66 347.37 716.81 353.07 706.23 359.23 C 695.65 365.39 686.57 372.02 676.75 378.75 C 666.93 385.49 658.91 393.29 649.70 400.70 C 640.49 408.10 632.24 416.22 623.75 424.75 C 615.26 433.28 607.97 441.17 600.25 450.25 C 592.52 459.33 585.69 468.99 578.77 478.77 C 571.85 488.55 565.79 498.17 559.77 508.77 C 553.75 519.37 547.89 530.34 542.77 541.77 C 537.65 553.20 532.59 564.11 528.32 576.32 C 524.06 588.53 519.89 601.20 515.99 613.99 C 512.09 626.79 509.77 640.21 506.78 653.78 C 503.78 667.34 501.10 681.75 499.00 696.00 C 496.90 710.24 495.32 725.23 493.99 739.99 C 492.66 754.76 491.30 770.80 491.00 786.00
M 1159.00 405.00 
C 1159.55 408.09 1159.28 411.06 1159.00 414.00
C 1159.00 436.16 1147.36 460.20 1136.70 478.70 C 1126.03 497.19 1110.99 510.09 1094.75 523.75 C 1078.51 537.41 1075.52 571.56 1097.25 582.75 C 1118.98 593.94 1122.52 622.34 1102.25 636.25 C 1081.98 650.16 1067.46 658.91 1043.98 664.98 C 1020.49 671.04 997.85 678.85 972.78 680.78 C 947.70 682.71 916.27 689.88 890.00 686.00 C 863.73 682.12 843.78 707.68 848.99 730.01 C 854.21 752.34 886.64 762.83 874.23 786.23 C 861.81 809.63 843.40 811.73 821.93 821.93 C 800.45 832.13 776.40 834.73 752.33 839.33 C 728.26 843.93 699.09 844.93 674.00 848.00 C 648.91 851.07 622.76 855.04 598.00 860.00
C 610.73 839.24 625.28 818.80 640.30 799.30 C 655.32 779.81 670.23 761.33 686.77 742.77 C 703.31 724.21 720.38 708.01 738.75 690.75 C 757.12 673.50 775.69 660.58 796.23 645.23 C 816.77 629.88 839.01 621.18 861.25 606.25 C 883.48 591.32 868.45 543.53 840.99 545.01 C 813.54 546.48 792.05 565.26 769.92 577.92 C 747.79 590.58 730.03 605.97 710.75 621.75 C 691.48 637.54 674.37 654.13 656.75 671.75 C 639.14 689.38 624.15 707.49 608.25 726.25 C 592.35 745.01 577.36 765.19 563.00 785.00
C 563.09 765.61 564.77 741.78 567.00 722.00 C 569.23 702.22 573.33 681.12 577.33 662.33 C 581.32 643.53 587.02 625.36 592.92 607.92 C 598.83 590.49 605.69 574.62 613.77 558.77 C 621.85 542.92 629.90 529.03 639.92 514.92 C 649.94 500.80 659.92 489.51 671.75 476.75 C 683.58 463.99 695.28 454.33 708.70 443.70 C 722.11 433.07 735.38 424.13 750.70 415.70 C 766.01 407.26 781.80 400.37 799.07 395.07 C 816.35 389.78 842.75 386.86 860.67 391.33 C 878.59 395.80 891.61 404.19 903.75 418.25 C 915.89 432.31 930.17 442.26 949.01 442.99 C 967.84 443.72 984.37 432.98 1000.08 424.08 C 1015.79 415.17 1031.48 408.35 1048.67 402.67 C 1065.87 397.00 1087.56 390.33 1106.00 390.00 C 1124.44 389.67 1153.36 383.21 1159.00 405.00 Z"/>
</g>
<g fill="None" fill-opacity="0.0" stroke="#FDFDFD" stroke-opacity="1.00" stroke-width="0.3"><path d="
M 1159.00 414.00 
C 1159.00 411.02 1159.20 407.97 1159.00 405.00
C 1153.36 383.21 1124.44 389.67 1106.00 390.00 C 1087.56 390.33 1065.87 397.00 1048.67 402.67 C 1031.48 408.35 1015.79 415.17 1000.08 424.08 C 984.37 432.98 967.84 443.72 949.01 442.99 C 930.17 442.26 915.89 432.31 903.75 418.25 C 891.61 404.19 878.59 395.80 860.67 391.33 C 842.75 386.86 816.35 389.78 799.07 395.07 C 781.80 400.37 766.01 407.26 750.70 415.70 C 735.38 424.13 722.11 433.07 708.70 443.70 C 695.28 454.33 683.58 463.99 671.75 476.75 C 659.92 489.51 649.94 500.80 639.92 514.92 C 629.90 529.03 621.85 542.92 613.77 558.77 C 605.69 574.62 598.83 590.49 592.92 607.92 C 587.02 625.36 581.32 643.53 577.33 662.33 C 573.33 681.12 569.23 702.22 567.00 722.00 C 564.77 741.78 563.09 765.61 563.00 785.00
C 577.36 765.19 592.35 745.01 608.25 726.25 C 624.15 707.49 639.14 689.38 656.75 671.75 C 674.37 654.13 691.48 637.54 710.75 621.75 C 730.03 605.97 747.79 590.58 769.92 577.92 C 792.05 565.26 813.54 546.48 840.99 545.01 C 868.45 543.53 883.48 591.32 861.25 606.25 C 839.01 621.18 816.77 629.88 796.23 645.23 C 775.69 660.58 757.12 673.50 738.75 690.75 C 720.38 708.01 703.31 724.21 686.77 742.77 C 670.23 761.33 655.32 779.81 640.30 799.30 C 625.28 818.80 610.73 839.24 598.00 860.00
C 622.76 855.04 648.91 851.07 674.00 848.00 C 699.09 844.93 728.26 843.93 752.33 839.33 C 776.40 834.73 800.45 832.13 821.93 821.93 C 843.40 811.73 861.81 809.63 874.23 786.23 C 886.64 762.83 854.21 752.34 848.99 730.01 C 843.78 707.68 863.73 682.12 890.00 686.00 C 916.27 689.88 947.70 682.71 972.78 680.78 C 997.85 678.85 1020.49 671.04 1043.98 664.98 C 1067.46 658.91 1081.98 650.16 1102.25 636.25 C 1122.52 622.34 1118.98 593.94 1097.25 582.75 C 1075.52 571.56 1078.51 537.41 1094.75 523.75 C 1110.99 510.09 1126.03 497.19 1136.70 478.70 C 1147.36 460.20 1159.00 436.16 1159.00 414.00 Z"/>
</g>
<g fill="None" fill-opacity="0.0" stroke="#908E8F" stroke-opacity="1.00" stroke-width="0.3"><path d="
M 1230.00 417.00 
C 1230.48 412.00 1230.62 406.09 1230.00 401.00
C 1230.11 406.33 1230.00 411.67 1230.00 417.00 Z"/>
</g>
<g fill="None" fill-opacity="0.0" stroke="#918F8F" stroke-opacity="1.00" stroke-width="0.3"><path d="
M 1159.00 414.00 
C 1159.28 411.06 1159.55 408.09 1159.00 405.00
C 1159.20 407.97 1159.00 411.02 1159.00 414.00 Z"/>
</g>
<g fill="None" fill-opacity="0.0" stroke="#949494" stroke-opacity="1.00" stroke-width="0.3"><path d="
M 490.00 793.00 
C 490.16 791.30 490.95 788.41 491.00 786.00
C 490.84 787.70 490.05 790.59 490.00 793.00 Z"/>
</g>
<g fill="None" fill-opacity="0.0" stroke="#9D9D9C" stroke-opacity="1.00" stroke-width="0.3"><path d="
M 596.00 1026.00 
C 600.97 1026.00 606.03 1025.73 611.00 1026.00
C 606.20 1025.22 600.81 1025.53 596.00 1026.00 Z"/>
</g>
<g fill="None" fill-opacity="0.0" stroke="#3C3B3A" stroke-opacity="1.00" stroke-width="0.3"><path d="
M 675.00 1205.00 
C 678.28 1205.22 681.71 1205.07 685.00 1205.00
C 694.74 1204.81 705.77 1201.93 714.32 1198.32 C 722.87 1194.71 730.10 1191.71 737.75 1186.75 C 745.41 1181.80 750.47 1178.02 757.25 1171.25 C 764.04 1164.49 769.07 1163.39 774.75 1153.75 C 780.43 1144.12 786.33 1151.78 792.25 1158.75 C 798.17 1165.72 803.28 1170.33 809.92 1176.08 C 816.56 1181.83 823.30 1185.40 830.92 1190.08 C 838.55 1194.75 847.21 1197.10 855.93 1200.07 C 864.64 1203.04 876.29 1205.00 886.00 1205.00
C 890.33 1205.00 894.67 1205.00 899.00 1205.00
C 942.36 1204.84 976.96 1177.01 1006.00 1146.00
C 1031.28 1178.89 1068.84 1205.00 1111.00 1205.00
C 1115.33 1205.00 1119.67 1205.00 1124.00 1205.00
C 1148.25 1205.00 1175.31 1194.26 1194.25 1180.25 C 1213.19 1166.23 1228.10 1151.31 1240.75 1131.75 C 1253.39 1112.18 1269.02 1088.65 1265.78 1064.22 C 1262.53 1039.79 1221.98 1028.63 1207.25 1048.25 C 1192.52 1067.87 1187.92 1088.86 1171.25 1107.25 C 1154.58 1125.63 1130.74 1139.64 1106.01 1133.99 C 1081.28 1128.34 1066.90 1111.49 1053.92 1091.08 C 1040.94 1070.67 1039.85 1042.96 1011.07 1038.93 C 982.29 1034.90 974.04 1063.34 962.77 1083.77 C 951.50 1104.20 937.18 1120.68 915.07 1131.07 C 892.96 1141.47 863.09 1131.59 846.25 1113.75 C 829.41 1095.92 821.68 1075.35 811.25 1053.75 C 800.83 1032.14 760.04 1033.71 750.92 1056.92 C 741.81 1080.14 731.71 1096.40 715.25 1116.25 C 698.79 1136.10 669.63 1129.94 652.75 1148.75 C 635.88 1167.57 649.10 1203.24 675.00 1205.00 Z"/>
</g>
<g fill="None" fill-opacity="0.0" stroke="#939390" stroke-opacity="1.00" stroke-width="0.3"><path d="
M 600.00 1096.00 
C 604.17 1096.00 608.47 1095.57 612.00 1095.00
C 608.03 1095.22 603.34 1095.68 600.00 1096.00 Z"/>
</g>
<g fill="None" fill-opacity="0.0" stroke="#8F8F8E" stroke-opacity="1.00" stroke-width="0.3"><path d="
M 419.00 1205.00 
C 415.77 1205.22 412.23 1205.22 409.00 1205.00
C 412.43 1205.61 415.51 1205.63 419.00 1205.00 Z"/>
</g>
<g fill="None" fill-opacity="0.0" stroke="#878586" stroke-opacity="1.00" stroke-width="0.3"><path d="
M 685.00 1205.00 
C 681.71 1205.07 678.28 1205.22 675.00 1205.00
C 678.38 1205.61 681.62 1205.41 685.00 1205.00 Z"/>
</g>
<g fill="None" fill-opacity="0.0" stroke="#949393" stroke-opacity="1.00" stroke-width="0.3"><path d="
M 899.00 1205.00 
C 894.67 1205.00 890.33 1205.00 886.00 1205.00
C 890.02 1205.39 894.91 1205.40 899.00 1205.00 Z"/>
</g>
<g fill="None" fill-opacity="0.0" stroke="#999997" stroke-opacity="1.00" stroke-width="0.3"><path d="
M 1124.00 1205.00 
C 1119.67 1205.00 1115.33 1205.00 1111.00 1205.00
C 1115.03 1205.39 1119.91 1205.40 1124.00 1205.00 Z"/>
</g>
<g fill="#FEFEFE" fill-opacity="1.00" stroke="None">
<path d="
M 0.00 1523.00 
L 1680.00 1523.00
L 1680.00 0.00
L 0.00 0.00
L 0.00 1523.00
M 1135.00 318.00 
C 1182.13 318.00 1228.99 350.84 1230.00 401.00
C 1230.62 406.09 1230.48 412.00 1230.00 417.00
C 1230.00 430.18 1226.47 445.00 1223.07 457.07 C 1219.68 469.15 1215.06 480.18 1210.22 491.22 C 1205.39 502.27 1199.15 511.14 1193.08 521.08 C 1187.02 531.03 1179.60 538.44 1172.75 547.75 C 1165.89 557.05 1179.63 566.63 1181.93 578.07 C 1184.23 589.52 1190.21 606.33 1188.00 619.00 C 1185.79 631.67 1182.68 644.88 1176.70 655.70 C 1170.71 666.51 1164.81 673.61 1156.25 682.25 C 1147.68 690.89 1140.13 696.65 1130.25 703.25 C 1120.38 709.86 1110.27 714.07 1099.31 719.31 C 1088.34 724.54 1077.02 728.38 1064.98 731.98 C 1052.93 735.57 1040.78 739.20 1027.98 741.98 C 1015.17 744.75 1001.55 747.26 988.00 749.00 C 974.45 750.73 959.01 753.29 945.00 754.00
C 952.50 781.93 944.59 814.49 926.25 836.25 C 907.90 858.01 889.55 869.31 863.92 880.92 C 838.30 892.54 809.76 900.63 780.98 905.98 C 752.19 911.32 715.72 914.82 685.99 917.99 C 656.26 921.16 621.73 926.12 593.98 933.98 C 566.22 941.83 540.94 950.38 530.03 977.03 C 519.11 1003.67 505.53 1024.11 496.00 1051.00
C 527.24 1036.32 560.72 1027.03 596.00 1026.00
C 600.81 1025.53 606.20 1025.22 611.00 1026.00
C 651.87 1028.22 653.26 1092.76 612.00 1095.00
C 608.47 1095.57 604.17 1096.00 600.00 1096.00
C 573.85 1096.00 546.08 1105.49 523.32 1115.32 C 500.56 1125.15 484.93 1139.91 466.75 1155.75 C 448.57 1171.59 446.32 1203.14 419.00 1205.00
C 415.51 1205.63 412.43 1205.61 409.00 1205.00
C 379.73 1203.01 374.63 1169.97 383.98 1147.98 C 393.32 1125.98 398.72 1102.02 407.93 1079.93 C 417.14 1057.84 425.02 1036.48 434.32 1014.32 C 443.63 992.16 453.82 974.02 463.32 951.32 C 472.83 928.63 489.75 912.41 489.00 885.00 C 488.25 857.59 489.44 821.05 490.00 793.00
C 490.05 790.59 490.84 787.70 491.00 786.00
C 491.30 770.80 492.66 754.76 493.99 739.99 C 495.32 725.23 496.90 710.24 499.00 696.00 C 501.10 681.75 503.78 667.34 506.78 653.78 C 509.77 640.21 512.09 626.79 515.99 613.99 C 519.89 601.20 524.06 588.53 528.32 576.32 C 532.59 564.11 537.65 553.20 542.77 541.77 C 547.89 530.34 553.75 519.37 559.77 508.77 C 565.79 498.17 571.85 488.55 578.77 478.77 C 585.69 468.99 592.52 459.33 600.25 450.25 C 607.97 441.17 615.26 433.28 623.75 424.75 C 632.24 416.22 640.49 408.10 649.70 400.70 C 658.91 393.29 666.93 385.49 676.75 378.75 C 686.57 372.02 695.65 365.39 706.23 359.23 C 716.81 353.07 727.66 347.37 739.22 342.22 C 750.79 337.08 761.59 332.13 774.22 328.22 C 786.85 324.31 801.42 321.09 815.07 319.07 C 828.72 317.06 848.40 317.91 862.01 318.99 C 875.62 320.07 889.62 325.01 901.68 329.32 C 913.74 333.64 922.46 341.53 932.75 347.25 C 943.04 352.97 949.19 369.47 960.23 364.23 C 971.27 358.99 981.40 352.94 993.07 348.07 C 1004.75 343.21 1016.32 337.42 1029.02 334.02 C 1041.73 330.63 1053.62 325.34 1067.22 323.22 C 1080.82 321.10 1097.67 318.00 1112.00 318.00
C 1119.24 317.30 1127.83 317.31 1135.00 318.00
M 1124.00 1205.00 
C 1119.91 1205.40 1115.03 1205.39 1111.00 1205.00
C 1068.84 1205.00 1031.28 1178.89 1006.00 1146.00
C 976.96 1177.01 942.36 1204.84 899.00 1205.00
C 894.91 1205.40 890.02 1205.39 886.00 1205.00
C 876.29 1205.00 864.64 1203.04 855.93 1200.07 C 847.21 1197.10 838.55 1194.75 830.92 1190.08 C 823.30 1185.40 816.56 1181.83 809.92 1176.08 C 803.28 1170.33 798.17 1165.72 792.25 1158.75 C 786.33 1151.78 780.43 1144.12 774.75 1153.75 C 769.07 1163.39 764.04 1164.49 757.25 1171.25 C 750.47 1178.02 745.41 1181.80 737.75 1186.75 C 730.10 1191.71 722.87 1194.71 714.32 1198.32 C 705.77 1201.93 694.74 1204.81 685.00 1205.00
C 681.62 1205.41 678.38 1205.61 675.00 1205.00
C 649.10 1203.24 635.88 1167.57 652.75 1148.75 C 669.63 1129.94 698.79 1136.10 715.25 1116.25 C 731.71 1096.40 741.81 1080.14 750.92 1056.92 C 760.04 1033.71 800.83 1032.14 811.25 1053.75 C 821.68 1075.35 829.41 1095.92 846.25 1113.75 C 863.09 1131.59 892.96 1141.47 915.07 1131.07 C 937.18 1120.68 951.50 1104.20 962.77 1083.77 C 974.04 1063.34 982.29 1034.90 1011.07 1038.93 C 1039.85 1042.96 1040.94 1070.67 1053.92 1091.08 C 1066.90 1111.49 1081.28 1128.34 1106.01 1133.99 C 1130.74 1139.64 1154.58 1125.63 1171.25 1107.25 C 1187.92 1088.86 1192.52 1067.87 1207.25 1048.25 C 1221.98 1028.63 1262.53 1039.79 1265.78 1064.22 C 1269.02 1088.65 1253.39 1112.18 1240.75 1131.75 C 1228.10 1151.31 1213.19 1166.23 1194.25 1180.25 C 1175.31 1194.26 1148.25 1205.00 1124.00 1205.00 Z"/>
</g>
<g fill="#A2A19F" fill-opacity="1.00" stroke="None">
<path d="
M 1112.00 318.00 
C 1119.67 318.00 1127.33 318.00 1135.00 318.00
C 1127.83 317.31 1119.24 317.30 1112.00 318.00 Z"/>
</g>
<g fill="#3B3B39" fill-opacity="1.00" stroke="None">
<path d="
M 491.00 786.00 
C 490.95 788.41 490.16 791.30 490.00 793.00
C 489.44 821.05 488.25 857.59 489.00 885.00 C 489.75 912.41 472.83 928.63 463.32 951.32 C 453.82 974.02 443.63 992.16 434.32 1014.32 C 425.02 1036.48 417.14 1057.84 407.93 1079.93 C 398.72 1102.02 393.32 1125.98 383.98 1147.98 C 374.63 1169.97 379.73 1203.01 409.00 1205.00
C 412.23 1205.22 415.77 1205.22 419.00 1205.00
C 446.32 1203.14 448.57 1171.59 466.75 1155.75 C 484.93 1139.91 500.56 1125.15 523.32 1115.32 C 546.08 1105.49 573.85 1096.00 600.00 1096.00
C 603.34 1095.68 608.03 1095.22 612.00 1095.00
C 653.26 1092.76 651.87 1028.22 611.00 1026.00
C 606.03 1025.73 600.97 1026.00 596.00 1026.00
C 560.72 1027.03 527.24 1036.32 496.00 1051.00
C 505.53 1024.11 519.11 1003.67 530.03 977.03 C 540.94 950.38 566.22 941.83 593.98 933.98 C 621.73 926.12 656.26 921.16 685.99 917.99 C 715.72 914.82 752.19 911.32 780.98 905.98 C 809.76 900.63 838.30 892.54 863.92 880.92 C 889.55 869.31 907.90 858.01 926.25 836.25 C 944.59 814.49 952.50 781.93 945.00 754.00
C 959.01 753.29 974.45 750.73 988.00 749.00 C 1001.55 747.26 1015.17 744.75 1027.98 741.98 C 1040.78 739.20 1052.93 735.57 1064.98 731.98 C 1077.02 728.38 1088.34 724.54 1099.31 719.31 C 1110.27 714.07 1120.38 709.86 1130.25 703.25 C 1140.13 696.65 1147.68 690.89 1156.25 682.25 C 1164.81 673.61 1170.71 666.51 1176.70 655.70 C 1182.68 644.88 1185.79 631.67 1188.00 619.00 C 1190.21 606.33 1184.23 589.52 1181.93 578.07 C 1179.63 566.63 1165.89 557.05 1172.75 547.75 C 1179.60 538.44 1187.02 531.03 1193.08 521.08 C 1199.15 511.14 1205.39 502.27 1210.22 491.22 C 1215.06 480.18 1219.68 469.15 1223.07 457.07 C 1226.47 445.00 1230.00 430.18 1230.00 417.00
C 1230.00 411.67 1230.11 406.33 1230.00 401.00
C 1228.99 350.84 1182.13 318.00 1135.00 318.00
C 1127.33 318.00 1119.67 318.00 1112.00 318.00
C 1097.67 318.00 1080.82 321.10 1067.22 323.22 C 1053.62 325.34 1041.73 330.63 1029.02 334.02 C 1016.32 337.42 1004.75 343.21 993.07 348.07 C 981.40 352.94 971.27 358.99 960.23 364.23 C 949.19 369.47 943.04 352.97 932.75 347.25 C 922.46 341.53 913.74 333.64 901.68 329.32 C 889.62 325.01 875.62 320.07 862.01 318.99 C 848.40 317.91 828.72 317.06 815.07 319.07 C 801.42 321.09 786.85 324.31 774.22 328.22 C 761.59 332.13 750.79 337.08 739.22 342.22 C 727.66 347.37 716.81 353.07 706.23 359.23 C 695.65 365.39 686.57 372.02 676.75 378.75 C 666.93 385.49 658.91 393.29 649.70 400.70 C 640.49 408.10 632.24 416.22 623.75 424.75 C 615.26 433.28 607.97 441.17 600.25 450.25 C 592.52 459.33 585.69 468.99 578.77 478.77 C 571.85 488.55 565.79 498.17 559.77 508.77 C 553.75 519.37 547.89 530.34 542.77 541.77 C 537.65 553.20 532.59 564.11 528.32 576.32 C 524.06 588.53 519.89 601.20 515.99 613.99 C 512.09 626.79 509.77 640.21 506.78 653.78 C 503.78 667.34 501.10 681.75 499.00 696.00 C 496.90 710.24 495.32 725.23 493.99 739.99 C 492.66 754.76 491.30 770.80 491.00 786.00
M 1159.00 405.00 
C 1159.55 408.09 1159.28 411.06 1159.00 414.00
C 1159.00 436.16 1147.36 460.20 1136.70 478.70 C 1126.03 497.19 1110.99 510.09 1094.75 523.75 C 1078.51 537.41 1075.52 571.56 1097.25 582.75 C 1118.98 593.94 1122.52 622.34 1102.25 636.25 C 1081.98 650.16 1067.46 658.91 1043.98 664.98 C 1020.49 671.04 997.85 678.85 972.78 680.78 C 947.70 682.71 916.27 689.88 890.00 686.00 C 863.73 682.12 843.78 707.68 848.99 730.01 C 854.21 752.34 886.64 762.83 874.23 786.23 C 861.81 809.63 843.40 811.73 821.93 821.93 C 800.45 832.13 776.40 834.73 752.33 839.33 C 728.26 843.93 699.09 844.93 674.00 848.00 C 648.91 851.07 622.76 855.04 598.00 860.00
C 610.73 839.24 625.28 818.80 640.30 799.30 C 655.32 779.81 670.23 761.33 686.77 742.77 C 703.31 724.21 720.38 708.01 738.75 690.75 C 757.12 673.50 775.69 660.58 796.23 645.23 C 816.77 629.88 839.01 621.18 861.25 606.25 C 883.48 591.32 868.45 543.53 840.99 545.01 C 813.54 546.48 792.05 565.26 769.92 577.92 C 747.79 590.58 730.03 605.97 710.75 621.75 C 691.48 637.54 674.37 654.13 656.75 671.75 C 639.14 689.38 624.15 707.49 608.25 726.25 C 592.35 745.01 577.36 765.19 563.00 785.00
C 563.09 765.61 564.77 741.78 567.00 722.00 C 569.23 702.22 573.33 681.12 577.33 662.33 C 581.32 643.53 587.02 625.36 592.92 607.92 C 598.83 590.49 605.69 574.62 613.77 558.77 C 621.85 542.92 629.90 529.03 639.92 514.92 C 649.94 500.80 659.92 489.51 671.75 476.75 C 683.58 463.99 695.28 454.33 708.70 443.70 C 722.11 433.07 735.38 424.13 750.70 415.70 C 766.01 407.26 781.80 400.37 799.07 395.07 C 816.35 389.78 842.75 386.86 860.67 391.33 C 878.59 395.80 891.61 404.19 903.75 418.25 C 915.89 432.31 930.17 442.26 949.01 442.99 C 967.84 443.72 984.37 432.98 1000.08 424.08 C 1015.79 415.17 1031.48 408.35 1048.67 402.67 C 1065.87 397.00 1087.56 390.33 1106.00 390.00 C 1124.44 389.67 1153.36 383.21 1159.00 405.00 Z"/>
</g>
<g fill="#FDFDFD" fill-opacity="1.00" stroke="None">
<path d="
M 1159.00 414.00 
C 1159.00 411.02 1159.20 407.97 1159.00 405.00
C 1153.36 383.21 1124.44 389.67 1106.00 390.00 C 1087.56 390.33 1065.87 397.00 1048.67 402.67 C 1031.48 408.35 1015.79 415.17 1000.08 424.08 C 984.37 432.98 967.84 443.72 949.01 442.99 C 930.17 442.26 915.89 432.31 903.75 418.25 C 891.61 404.19 878.59 395.80 860.67 391.33 C 842.75 386.86 816.35 389.78 799.07 395.07 C 781.80 400.37 766.01 407.26 750.70 415.70 C 735.38 424.13 722.11 433.07 708.70 443.70 C 695.28 454.33 683.58 463.99 671.75 476.75 C 659.92 489.51 649.94 500.80 639.92 514.92 C 629.90 529.03 621.85 542.92 613.77 558.77 C 605.69 574.62 598.83 590.49 592.92 607.92 C 587.02 625.36 581.32 643.53 577.33 662.33 C 573.33 681.12 569.23 702.22 567.00 722.00 C 564.77 741.78 563.09 765.61 563.00 785.00
C 577.36 765.19 592.35 745.01 608.25 726.25 C 624.15 707.49 639.14 689.38 656.75 671.75 C 674.37 654.13 691.48 637.54 710.75 621.75 C 730.03 605.97 747.79 590.58 769.92 577.92 C 792.05 565.26 813.54 546.48 840.99 545.01 C 868.45 543.53 883.48 591.32 861.25 606.25 C 839.01 621.18 816.77 629.88 796.23 645.23 C 775.69 660.58 757.12 673.50 738.75 690.75 C 720.38 708.01 703.31 724.21 686.77 742.77 C 670.23 761.33 655.32 779.81 640.30 799.30 C 625.28 818.80 610.73 839.24 598.00 860.00
C 622.76 855.04 648.91 851.07 674.00 848.00 C 699.09 844.93 728.26 843.93 752.33 839.33 C 776.40 834.73 800.45 832.13 821.93 821.93 C 843.40 811.73 861.81 809.63 874.23 786.23 C 886.64 762.83 854.21 752.34 848.99 730.01 C 843.78 707.68 863.73 682.12 890.00 686.00 C 916.27 689.88 947.70 682.71 972.78 680.78 C 997.85 678.85 1020.49 671.04 1043.98 664.98 C 1067.46 658.91 1081.98 650.16 1102.25 636.25 C 1122.52 622.34 1118.98 593.94 1097.25 582.75 C 1075.52 571.56 1078.51 537.41 1094.75 523.75 C 1110.99 510.09 1126.03 497.19 1136.70 478.70 C 1147.36 460.20 1159.00 436.16 1159.00 414.00 Z"/>
</g>
<g fill="#908E8F" fill-opacity="1.00" stroke="None">
<path d="
M 1230.00 417.00 
C 1230.48 412.00 1230.62 406.09 1230.00 401.00
C 1230.11 406.33 1230.00 411.67 1230.00 417.00 Z"/>
</g>
<g fill="#918F8F" fill-opacity="1.00" stroke="None">
<path d="
M 1159.00 414.00 
C 1159.28 411.06 1159.55 408.09 1159.00 405.00
C 1159.20 407.97 1159.00 411.02 1159.00 414.00 Z"/>
</g>
<g fill="#949494" fill-opacity="1.00" stroke="None">
<path d="
M 490.00 793.00 
C 490.16 791.30 490.95 788.41 491.00 786.00
C 490.84 787.70 490.05 790.59 490.00 793.00 Z"/>
</g>
<g fill="#9D9D9C" fill-opacity="1.00" stroke="None">
<path d="
M 596.00 1026.00 
C 600.97 1026.00 606.03 1025.73 611.00 1026.00
C 606.20 1025.22 600.81 1025.53 596.00 1026.00 Z"/>
</g>
<g fill="#3C3B3A" fill-opacity="1.00" stroke="None">
<path d="
M 675.00 1205.00 
C 678.28 1205.22 681.71 1205.07 685.00 1205.00
C 694.74 1204.81 705.77 1201.93 714.32 1198.32 C 722.87 1194.71 730.10 1191.71 737.75 1186.75 C 745.41 1181.80 750.47 1178.02 757.25 1171.25 C 764.04 1164.49 769.07 1163.39 774.75 1153.75 C 780.43 1144.12 786.33 1151.78 792.25 1158.75 C 798.17 1165.72 803.28 1170.33 809.92 1176.08 C 816.56 1181.83 823.30 1185.40 830.92 1190.08 C 838.55 1194.75 847.21 1197.10 855.93 1200.07 C 864.64 1203.04 876.29 1205.00 886.00 1205.00
C 890.33 1205.00 894.67 1205.00 899.00 1205.00
C 942.36 1204.84 976.96 1177.01 1006.00 1146.00
C 1031.28 1178.89 1068.84 1205.00 1111.00 1205.00
C 1115.33 1205.00 1119.67 1205.00 1124.00 1205.00
C 1148.25 1205.00 1175.31 1194.26 1194.25 1180.25 C 1213.19 1166.23 1228.10 1151.31 1240.75 1131.75 C 1253.39 1112.18 1269.02 1088.65 1265.78 1064.22 C 1262.53 1039.79 1221.98 1028.63 1207.25 1048.25 C 1192.52 1067.87 1187.92 1088.86 1171.25 1107.25 C 1154.58 1125.63 1130.74 1139.64 1106.01 1133.99 C 1081.28 1128.34 1066.90 1111.49 1053.92 1091.08 C 1040.94 1070.67 1039.85 1042.96 1011.07 1038.93 C 982.29 1034.90 974.04 1063.34 962.77 1083.77 C 951.50 1104.20 937.18 1120.68 915.07 1131.07 C 892.96 1141.47 863.09 1131.59 846.25 1113.75 C 829.41 1095.92 821.68 1075.35 811.25 1053.75 C 800.83 1032.14 760.04 1033.71 750.92 1056.92 C 741.81 1080.14 731.71 1096.40 715.25 1116.25 C 698.79 1136.10 669.63 1129.94 652.75 1148.75 C 635.88 1167.57 649.10 1203.24 675.00 1205.00 Z"/>
</g>
<g fill="#939390" fill-opacity="1.00" stroke="None">
<path d="
M 600.00 1096.00 
C 604.17 1096.00 608.47 1095.57 612.00 1095.00
C 608.03 1095.22 603.34 1095.68 600.00 1096.00 Z"/>
</g>
<g fill="#8F8F8E" fill-opacity="1.00" stroke="None">
<path d="
M 419.00 1205.00 
C 415.77 1205.22 412.23 1205.22 409.00 1205.00
C 412.43 1205.61 415.51 1205.63 419.00 1205.00 Z"/>
</g>
<g fill="#878586" fill-opacity="1.00" stroke="None">
<path d="
M 685.00 1205.00 
C 681.71 1205.07 678.28 1205.22 675.00 1205.00
C 678.38 1205.61 681.62 1205.41 685.00 1205.00 Z"/>
</g>
<g fill="#949393" fill-opacity="1.00" stroke="None">
<path d="
M 899.00 1205.00 
C 894.67 1205.00 890.33 1205.00 886.00 1205.00
C 890.02 1205.39 894.91 1205.40 899.00 1205.00 Z"/>
</g>
<g fill="#999997" fill-opacity="1.00" stroke="None">
<path d="
M 1124.00 1205.00 
C 1119.67 1205.00 1115.33 1205.00 1111.00 1205.00
C 1115.03 1205.39 1119.91 1205.40 1124.00 1205.00 Z"/>
</g>
</svg>